<mxfile host="app.diagrams.net" modified="2022-04-29T20:05:04.388Z" agent="5.0 (X11; Linux x86_64) AppleWebKit/537.36 (KHTML, like Gecko) Chrome/100.0.4896.127 Safari/537.36" etag="NI7-T2BK0MNEXVn36XdM" version="17.4.6" type="github">
  <diagram id="xiRwBhVmfWGTWxIaFws_" name="product-flow">
    <mxGraphModel dx="1422" dy="806" grid="1" gridSize="10" guides="1" tooltips="1" connect="1" arrows="1" fold="1" page="1" pageScale="1" pageWidth="827" pageHeight="1169" math="0" shadow="0">
      <root>
        <mxCell id="0" />
        <mxCell id="1" parent="0" />
        <mxCell id="XERoDCYRJqWpOK4KTQHr-1" value="TABLE: products" style="swimlane;fontStyle=0;childLayout=stackLayout;horizontal=1;startSize=30;horizontalStack=0;resizeParent=1;resizeParentMax=0;resizeLast=0;collapsible=1;marginBottom=0;fillColor=#dae8fc;strokeColor=#6c8ebf;" vertex="1" parent="1">
          <mxGeometry x="60" y="325" width="140" height="300" as="geometry" />
        </mxCell>
        <mxCell id="XERoDCYRJqWpOK4KTQHr-2" value="id INT" style="text;strokeColor=#d79b00;fillColor=#ffe6cc;align=left;verticalAlign=middle;spacingLeft=4;spacingRight=4;overflow=hidden;points=[[0,0.5],[1,0.5]];portConstraint=eastwest;rotatable=0;" vertex="1" parent="XERoDCYRJqWpOK4KTQHr-1">
          <mxGeometry y="30" width="140" height="30" as="geometry" />
        </mxCell>
        <mxCell id="XERoDCYRJqWpOK4KTQHr-3" value="name VARCHAR(30)" style="text;strokeColor=none;fillColor=none;align=left;verticalAlign=middle;spacingLeft=4;spacingRight=4;overflow=hidden;points=[[0,0.5],[1,0.5]];portConstraint=eastwest;rotatable=0;" vertex="1" parent="XERoDCYRJqWpOK4KTQHr-1">
          <mxGeometry y="60" width="140" height="30" as="geometry" />
        </mxCell>
        <mxCell id="XERoDCYRJqWpOK4KTQHr-4" value="category VARCHAR(30)" style="text;strokeColor=none;fillColor=none;align=left;verticalAlign=middle;spacingLeft=4;spacingRight=4;overflow=hidden;points=[[0,0.5],[1,0.5]];portConstraint=eastwest;rotatable=0;" vertex="1" parent="XERoDCYRJqWpOK4KTQHr-1">
          <mxGeometry y="90" width="140" height="30" as="geometry" />
        </mxCell>
        <mxCell id="XERoDCYRJqWpOK4KTQHr-5" value="price DECIMAL(10, 0)" style="text;strokeColor=none;fillColor=none;align=left;verticalAlign=middle;spacingLeft=4;spacingRight=4;overflow=hidden;points=[[0,0.5],[1,0.5]];portConstraint=eastwest;rotatable=0;" vertex="1" parent="XERoDCYRJqWpOK4KTQHr-1">
          <mxGeometry y="120" width="140" height="30" as="geometry" />
        </mxCell>
        <mxCell id="XERoDCYRJqWpOK4KTQHr-6" value="stock INT" style="text;strokeColor=none;fillColor=none;align=left;verticalAlign=middle;spacingLeft=4;spacingRight=4;overflow=hidden;points=[[0,0.5],[1,0.5]];portConstraint=eastwest;rotatable=0;" vertex="1" parent="XERoDCYRJqWpOK4KTQHr-1">
          <mxGeometry y="150" width="140" height="30" as="geometry" />
        </mxCell>
        <mxCell id="XERoDCYRJqWpOK4KTQHr-7" value="size VARCHAR(10)" style="text;strokeColor=none;fillColor=none;align=left;verticalAlign=middle;spacingLeft=4;spacingRight=4;overflow=hidden;points=[[0,0.5],[1,0.5]];portConstraint=eastwest;rotatable=0;" vertex="1" parent="XERoDCYRJqWpOK4KTQHr-1">
          <mxGeometry y="180" width="140" height="30" as="geometry" />
        </mxCell>
        <mxCell id="XERoDCYRJqWpOK4KTQHr-8" value="color VARCHAR(10)" style="text;strokeColor=none;fillColor=none;align=left;verticalAlign=middle;spacingLeft=4;spacingRight=4;overflow=hidden;points=[[0,0.5],[1,0.5]];portConstraint=eastwest;rotatable=0;" vertex="1" parent="XERoDCYRJqWpOK4KTQHr-1">
          <mxGeometry y="210" width="140" height="30" as="geometry" />
        </mxCell>
        <mxCell id="XERoDCYRJqWpOK4KTQHr-9" value="premium TINYINT" style="text;strokeColor=none;fillColor=none;align=left;verticalAlign=middle;spacingLeft=4;spacingRight=4;overflow=hidden;points=[[0,0.5],[1,0.5]];portConstraint=eastwest;rotatable=0;" vertex="1" parent="XERoDCYRJqWpOK4KTQHr-1">
          <mxGeometry y="240" width="140" height="30" as="geometry" />
        </mxCell>
        <mxCell id="XERoDCYRJqWpOK4KTQHr-10" value="description VARCHAR(100)" style="text;strokeColor=none;fillColor=none;align=left;verticalAlign=middle;spacingLeft=4;spacingRight=4;overflow=hidden;points=[[0,0.5],[1,0.5]];portConstraint=eastwest;rotatable=0;" vertex="1" parent="XERoDCYRJqWpOK4KTQHr-1">
          <mxGeometry y="270" width="140" height="30" as="geometry" />
        </mxCell>
        <mxCell id="XERoDCYRJqWpOK4KTQHr-11" value="" style="endArrow=classic;startArrow=classic;html=1;rounded=0;entryX=0.5;entryY=1;entryDx=0;entryDy=0;exitX=0.5;exitY=0;exitDx=0;exitDy=0;exitPerimeter=0;" edge="1" parent="1" source="XERoDCYRJqWpOK4KTQHr-19" target="XERoDCYRJqWpOK4KTQHr-12">
          <mxGeometry width="50" height="50" relative="1" as="geometry">
            <mxPoint x="220" y="450" as="sourcePoint" />
            <mxPoint x="390" y="365" as="targetPoint" />
          </mxGeometry>
        </mxCell>
        <mxCell id="XERoDCYRJqWpOK4KTQHr-12" value="PRODUCT SERVICE" style="rounded=1;whiteSpace=wrap;html=1;" vertex="1" parent="1">
          <mxGeometry x="280" y="335" width="120" height="60" as="geometry" />
        </mxCell>
        <mxCell id="XERoDCYRJqWpOK4KTQHr-13" value="" style="endArrow=classic;startArrow=classic;html=1;rounded=0;exitX=1;exitY=0.5;exitDx=0;exitDy=0;entryX=0;entryY=0.5;entryDx=0;entryDy=0;" edge="1" parent="1" source="XERoDCYRJqWpOK4KTQHr-12" target="XERoDCYRJqWpOK4KTQHr-15">
          <mxGeometry width="50" height="50" relative="1" as="geometry">
            <mxPoint x="370" y="520" as="sourcePoint" />
            <mxPoint x="420" y="470" as="targetPoint" />
          </mxGeometry>
        </mxCell>
        <mxCell id="XERoDCYRJqWpOK4KTQHr-14" value="18002" style="edgeLabel;html=1;align=center;verticalAlign=middle;resizable=0;points=[];" vertex="1" connectable="0" parent="XERoDCYRJqWpOK4KTQHr-13">
          <mxGeometry x="0.5111" y="-3" relative="1" as="geometry">
            <mxPoint x="-112" y="12" as="offset" />
          </mxGeometry>
        </mxCell>
        <mxCell id="XERoDCYRJqWpOK4KTQHr-15" value="API" style="shape=hexagon;perimeter=hexagonPerimeter2;whiteSpace=wrap;html=1;fixedSize=1;" vertex="1" parent="1">
          <mxGeometry x="470" y="325" width="120" height="80" as="geometry" />
        </mxCell>
        <mxCell id="XERoDCYRJqWpOK4KTQHr-16" value="" style="endArrow=classic;startArrow=classic;html=1;rounded=0;fontSize=8;entryX=0.5;entryY=1;entryDx=0;entryDy=0;exitX=0.5;exitY=0;exitDx=0;exitDy=0;" edge="1" parent="1" source="XERoDCYRJqWpOK4KTQHr-18" target="XERoDCYRJqWpOK4KTQHr-15">
          <mxGeometry width="50" height="50" relative="1" as="geometry">
            <mxPoint x="620" y="490" as="sourcePoint" />
            <mxPoint x="480" y="480" as="targetPoint" />
          </mxGeometry>
        </mxCell>
        <mxCell id="XERoDCYRJqWpOK4KTQHr-17" value="In case we need to&lt;br&gt;verify user status" style="edgeLabel;html=1;align=center;verticalAlign=middle;resizable=0;points=[];fontSize=12;" vertex="1" connectable="0" parent="XERoDCYRJqWpOK4KTQHr-16">
          <mxGeometry x="0.3229" relative="1" as="geometry">
            <mxPoint y="6" as="offset" />
          </mxGeometry>
        </mxCell>
        <mxCell id="XERoDCYRJqWpOK4KTQHr-18" value="USER SERVICE" style="rounded=1;whiteSpace=wrap;html=1;" vertex="1" parent="1">
          <mxGeometry x="470" y="460" width="120" height="60" as="geometry" />
        </mxCell>
        <mxCell id="XERoDCYRJqWpOK4KTQHr-19" value="DATABASE:&lt;br&gt;product_service" style="shape=cylinder3;whiteSpace=wrap;html=1;boundedLbl=1;backgroundOutline=1;size=15;fontSize=12;" vertex="1" parent="1">
          <mxGeometry x="295" y="437.5" width="90" height="105" as="geometry" />
        </mxCell>
        <mxCell id="XERoDCYRJqWpOK4KTQHr-20" value="3306" style="text;html=1;strokeColor=none;fillColor=none;align=center;verticalAlign=middle;whiteSpace=wrap;rounded=0;fontSize=12;" vertex="1" parent="1">
          <mxGeometry x="310" y="512.5" width="60" height="30" as="geometry" />
        </mxCell>
        <mxCell id="XERoDCYRJqWpOK4KTQHr-21" value="" style="endArrow=classic;html=1;rounded=0;fontSize=12;exitX=1;exitY=0.5;exitDx=0;exitDy=0;entryX=0;entryY=0.5;entryDx=0;entryDy=0;entryPerimeter=0;" edge="1" parent="1" source="XERoDCYRJqWpOK4KTQHr-6" target="XERoDCYRJqWpOK4KTQHr-19">
          <mxGeometry width="50" height="50" relative="1" as="geometry">
            <mxPoint x="290" y="620" as="sourcePoint" />
            <mxPoint x="340" y="570" as="targetPoint" />
          </mxGeometry>
        </mxCell>
        <mxCell id="XERoDCYRJqWpOK4KTQHr-22" value="18000" style="text;html=1;strokeColor=none;fillColor=none;align=center;verticalAlign=middle;whiteSpace=wrap;rounded=0;fontSize=12;" vertex="1" parent="1">
          <mxGeometry x="500" y="365" width="60" height="30" as="geometry" />
        </mxCell>
        <mxCell id="XERoDCYRJqWpOK4KTQHr-23" value="18001" style="text;html=1;strokeColor=none;fillColor=none;align=center;verticalAlign=middle;whiteSpace=wrap;rounded=0;fontSize=12;" vertex="1" parent="1">
          <mxGeometry x="500" y="490" width="60" height="30" as="geometry" />
        </mxCell>
        <mxCell id="XERoDCYRJqWpOK4KTQHr-24" value="" style="endArrow=classic;startArrow=classic;html=1;rounded=0;fontSize=12;exitX=1;exitY=0.5;exitDx=0;exitDy=0;entryX=0;entryY=0.5;entryDx=0;entryDy=0;" edge="1" parent="1" source="XERoDCYRJqWpOK4KTQHr-15" target="XERoDCYRJqWpOK4KTQHr-25">
          <mxGeometry width="50" height="50" relative="1" as="geometry">
            <mxPoint x="780" y="670" as="sourcePoint" />
            <mxPoint x="830" y="620" as="targetPoint" />
          </mxGeometry>
        </mxCell>
        <mxCell id="XERoDCYRJqWpOK4KTQHr-25" value="CLIENT" style="rounded=1;whiteSpace=wrap;html=1;fontSize=12;" vertex="1" parent="1">
          <mxGeometry x="660" y="335" width="120" height="60" as="geometry" />
        </mxCell>
        <mxCell id="XERoDCYRJqWpOK4KTQHr-26" value="8080" style="text;html=1;strokeColor=none;fillColor=none;align=center;verticalAlign=middle;whiteSpace=wrap;rounded=0;fontSize=12;" vertex="1" parent="1">
          <mxGeometry x="690" y="365" width="60" height="30" as="geometry" />
        </mxCell>
      </root>
    </mxGraphModel>
  </diagram>
</mxfile>
